<svg id="Layer_1" data-name="Layer 1" xmlns="http://www.w3.org/2000/svg" viewBox="0 0 1087.5 1087.5"><defs><style>.cls-1,.cls-2,.cls-3,.cls-4{fill:none;stroke:#0a0a0a;}.cls-1,.cls-2,.cls-3{stroke-miterlimit:10;}.cls-1,.cls-3,.cls-4{stroke-width:3px;}.cls-2{stroke-width:4px;}.cls-3,.cls-4{stroke-linecap:round;}.cls-4{stroke-linejoin:round;}</style></defs><path class="cls-1" d="M367.14,579.36c15.78,5.9,16.49,21.56,30,43,10.2,16.18,10.35,8.13,56,53,15.26,15,22.57,23.09,37,28,8.7,3,21.68,8.61,32,3,4.07-2.21,8.47-2.43,14.5-3.5a55.63,55.63,0,0,1,13-1c6.38,0,11.51.82,22,0,18.76-1.48,28.45-2.24,36-9,2.27-2,5.47-5.61,10-20,6.3-20,7.86-42.17,8-45,.25-5,.37-11.52,4-19,3-6.2,7.17-9.74,8-11,5.94-9,23.71-60.36,17-107-.94-6.56-6.63-18.35-7-35-.17-7.7-.24-14.35,3-22,2.58-6.08,4.92-7.29,10-18,4.8-10.11,4.8-13.42,4-16-1-3.4-3-3.94-5-9-1.61-4.1-1.68-7.13-2-10-.71-6.38-2.39-9.21-6-19-.87-2.38-3.58-11.26-9-29-6.52-21.36-6.91-23.55-6-27,2.56-9.62,10.35-10.36,17-20,8.27-12,8.6-28.74,5-40-9.84-30.82-55.15-39.24-70-42-14.59-2.72-13.22,0-26-3-28.86-6.79-36.19-20.75-61-25-8.28-1.42-9.17-.16-32,1-40.35,2-49.9-1.28-67,0-46.15,3.44-80.53,35.4-107,60-17.23,16-33.25,30-45,54-6.23,12.75-9.82,25.5-17,51-6.08,21.59-6.81,29.14-7,35-.56,17.67,3.45,33.14,5,39,5.19,19.51,9.36,19.92,8,27-3.5,18.21-31.7,18.11-35,36-1.58,8.58,4.91,8.66,9,30,3.05,15.87.54,21.49,6,27,6.91,7,15.53,2.63,21,10,4.25,5.72,4.28,15.37,0,19-6.32,5.36-20.19-4-22-1-1.3,2.16,4.08,10.07,12,13,5.25,1.94,7.91.32,22,2,5.36.64,7.52,1.17,9,3,3.1,3.8.92,10.27,0,13-3.58,10.65-10.08,11.08-11,18-.72,5.42,2.66,9.79,9,18,4.38,5.66,8.92,11.54,17,16a48.54,48.54,0,0,0,30,5c6.53-1.11,3.14-2.07,22-9,6.63-2.44,11.13-3.82,13-8,1.35-3,.28-5.08,0-10-.43-7.57,1.68-9.94,3-18,2.61-15.87-3.15-21.2,1-26S360.16,576.74,367.14,579.36Z"/><path class="cls-2" d="M477.64,435.86c10.32-4.81,32.53-17.12,50-20,24.28-4,41.7,2.35,55,5"/><path class="cls-2" d="M625.64,415.86a23.93,23.93,0,0,1,10-8c3.92-1.61,7.61-1.74,15-2,3.35-.12,6.11-.07,8,0"/><path class="cls-3" d="M541.64,706.86c-26.46,18-44.8,29-57,36a262.77,262.77,0,0,0-25,16,187.82,187.82,0,0,0-22,18c-11.37,11.07-15,18.45-23,29a181.2,181.2,0,0,1-35,35c-9.64,7.37-12.28,7.75-18,14-5.38,5.88-10.28,13.46-16,30a224,224,0,0,0-11,50,256.53,256.53,0,0,0,0,53"/><path class="cls-1" d="M342.64,648.86c6,15.36,6.61,27.59,6,36-.93,13-4.75,17.2-3,29,.47,3.15,3.65,10.81,10,26,8,19.07,8.62,19.58,10,25,2.45,9.54,1.74,12.94,5,19,3.11,5.77,6.56,6.77,14,14a115.69,115.69,0,0,1,13,15"/><path class="cls-3" d="M332.64,652.86a139.19,139.19,0,0,0-17,44c-3.29,16.62-2.66,29.93-2,44,.88,18.52,5.9,23.87,5,40-.59,10.63-2.73,15-6,28-4.48,17.77-6.66,42.51-11,92-1.18,13.48-1.46,17.89-2,24-2.33,26.62-7.82,65.07-22,115"/><path class="cls-3" d="M582.64,708.86c-18.7,25.44-26.94,47.4-31,63-2.3,8.86-1.72,9.76-4,16-7.55,20.68-21.1,30.26-45,52-18.35,16.7-27.53,25-33,32-9.9,12.59-17.07,28.9-31,61-7.83,18-13.48,31.06-20,50a544.33,544.33,0,0,0-16,56"/><path class="cls-1" d="M652.64,690.86a287.8,287.8,0,0,1,36,81c10.93,40.83,8.69,69.89,8,128-.39,33.18-.35,81.8,2,142"/><path class="cls-1" d="M257.64,673.86c-18.9,2.61-43.46,9.39-59,29-18.9,23.85-9.39,47.67-12,108-2.69,62.25-14.08,65.95-18,132a591.2,591.2,0,0,0,3,104"/><path class="cls-4" d="M620.64,285.86c-14.66-5.33-43.36-13.34-77-6-44.57,9.72-71.27,40.63-88,60-18.2,21.07-40.42,46.79-51,86-4.88,18.1-5.73,33.31-18,40-10.57,5.76-23.58,1.9-49-6a313,313,0,0,1-41-16"/><path class="cls-1" d="M237.64,648.86c-8.94,9.5-23.35,22.19-44,30-19.17,7.24-27.17,4-52,12-5.66,1.82-49.62,15.95-49,32,.28,7.2,9.31,8.51,15,22,2.61,6.18,3.82,13.25,3,24-4.18,55.15-22,91-22,91-14,28.25-25.4,80.48-10,186"/><path class="cls-1" d="M676.64,690.86a220.18,220.18,0,0,0,53,19,226,226,0,0,0,50,5c46.4.73,91,34.8,124,60,102.88,78.56,161.79,242.14,167,257"/></svg>