<?xml version="1.0" encoding="utf-8"?>
<!-- Generator: Adobe Illustrator 24.1.0, SVG Export Plug-In . SVG Version: 6.00 Build 0)  -->
<svg version="1.1" id="Layer_1" xmlns="http://www.w3.org/2000/svg" xmlns:xlink="http://www.w3.org/1999/xlink" x="0px" y="0px"
	 viewBox="0 0 1087.5 1087.5" style="enable-background:new 0 0 1087.5 1087.5;" xml:space="preserve">
<style type="text/css">
	.st0{fill:none;stroke:#EDEDED;stroke-width:3;stroke-miterlimit:10;}
	.st1{fill:none;stroke:#EDEDED;stroke-width:4;stroke-miterlimit:10;}
	.st2{fill:none;stroke:#EDEDED;stroke-width:3;stroke-linecap:round;stroke-miterlimit:10;}
	.st3{fill:none;stroke:#EDEDED;stroke-width:3;stroke-linecap:round;stroke-linejoin:round;}
</style>
<path class="st0" d="M367.1,579.4c15.8,5.9,16.5,21.6,30,43c10.2,16.2,10.4,8.1,56,53c15.3,15,22.6,23.1,37,28c8.7,3,21.7,8.6,32,3
	c4.1-2.2,8.5-2.4,14.5-3.5c4.3-0.8,8.6-1.2,13-1c6.4,0,11.5,0.8,22,0c18.8-1.5,28.5-2.2,36-9c2.3-2,5.5-5.6,10-20
	c6.3-20,7.9-42.2,8-45c0.2-5,0.4-11.5,4-19c3-6.2,7.2-9.7,8-11c5.9-9,23.7-60.4,17-107c-0.9-6.6-6.6-18.4-7-35
	c-0.2-7.7-0.2-14.4,3-22c2.6-6.1,4.9-7.3,10-18c4.8-10.1,4.8-13.4,4-16c-1-3.4-3-3.9-5-9c-1.6-4.1-1.7-7.1-2-10
	c-0.7-6.4-2.4-9.2-6-19c-0.9-2.4-3.6-11.3-9-29c-6.5-21.4-6.9-23.5-6-27c2.6-9.6,10.3-10.4,17-20c8.3-12,8.6-28.7,5-40
	c-9.8-30.8-55.2-39.2-70-42c-14.6-2.7-13.2,0-26-3c-28.9-6.8-36.2-20.8-61-25c-8.3-1.4-9.2-0.2-32,1c-40.4,2-49.9-1.3-67,0
	c-46.1,3.4-80.5,35.4-107,60c-17.2,16-33.2,30-45,54c-6.2,12.8-9.8,25.5-17,51c-6.1,21.6-6.8,29.1-7,35c-0.6,17.7,3.4,33.1,5,39
	c5.2,19.5,9.4,19.9,8,27c-3.5,18.2-31.7,18.1-35,36c-1.6,8.6,4.9,8.7,9,30c3.1,15.9,0.5,21.5,6,27c6.9,7,15.5,2.6,21,10
	c4.2,5.7,4.3,15.4,0,19c-6.3,5.4-20.2-4-22-1c-1.3,2.2,4.1,10.1,12,13c5.2,1.9,7.9,0.3,22,2c5.4,0.6,7.5,1.2,9,3
	c3.1,3.8,0.9,10.3,0,13c-3.6,10.7-10.1,11.1-11,18c-0.7,5.4,2.7,9.8,9,18c4.4,5.7,8.9,11.5,17,16c9.2,4.8,19.7,6.6,30,5
	c6.5-1.1,3.1-2.1,22-9c6.6-2.4,11.1-3.8,13-8c1.4-3,0.3-5.1,0-10c-0.4-7.6,1.7-9.9,3-18c2.6-15.9-3.1-21.2,1-26
	S360.2,576.7,367.1,579.4z"/>
<path class="st1" d="M477.6,435.9c10.3-4.8,32.5-17.1,50-20c24.3-4,41.7,2.4,55,5"/>
<path class="st1" d="M625.6,415.9c2.5-3.5,6-6.3,10-8c3.9-1.6,7.6-1.7,15-2c3.3-0.1,6.1-0.1,8,0"/>
<path class="st2" d="M541.6,706.9c-26.5,18-44.8,29-57,36c-8.6,4.9-17,10.2-25,16c-7.8,5.4-15.1,11.5-22,18
	c-11.4,11.1-15,18.5-23,29c-10,13.2-21.8,25-35,35c-9.6,7.4-12.3,7.8-18,14c-5.4,5.9-10.3,13.5-16,30c-5.6,16.2-9.3,33-11,50
	c-1.8,17.6-1.8,35.4,0,53"/>
<path class="st0" d="M342.6,648.9c6,15.4,6.6,27.6,6,36c-0.9,13-4.8,17.2-3,29c0.5,3.2,3.6,10.8,10,26c8,19.1,8.6,19.6,10,25
	c2.5,9.5,1.7,12.9,5,19c3.1,5.8,6.6,6.8,14,14c4.8,4.6,9.1,9.6,13,15"/>
<path class="st2" d="M332.6,652.9c-8.1,13.6-13.9,28.5-17,44c-3.3,16.6-2.7,29.9-2,44c0.9,18.5,5.9,23.9,5,40c-0.6,10.6-2.7,15-6,28
	c-4.5,17.8-6.7,42.5-11,92c-1.2,13.5-1.5,17.9-2,24c-2.3,26.6-7.8,65.1-22,115"/>
<path class="st2" d="M582.6,708.9c-18.7,25.4-26.9,47.4-31,63c-2.3,8.9-1.7,9.8-4,16c-7.5,20.7-21.1,30.3-45,52
	c-18.4,16.7-27.5,25-33,32c-9.9,12.6-17.1,28.9-31,61c-7.8,18-13.5,31.1-20,50c-6.3,18.4-11.7,37.1-16,56"/>
<path class="st0" d="M652.6,690.9c16.1,25,28.3,52.3,36,81c10.9,40.8,8.7,69.9,8,128c-0.4,33.2-0.3,81.8,2,142"/>
<path class="st0" d="M257.6,673.9c-18.9,2.6-43.5,9.4-59,29c-18.9,23.8-9.4,47.7-12,108c-2.7,62.2-14.1,66-18,132
	c-2.1,34.7-1.1,69.5,3,104"/>
<path class="st3" d="M620.6,285.9c-14.7-5.3-43.4-13.3-77-6c-44.6,9.7-71.3,40.6-88,60c-18.2,21.1-40.4,46.8-51,86
	c-4.9,18.1-5.7,33.3-18,40c-10.6,5.8-23.6,1.9-49-6c-14-4.4-27.7-9.7-41-16"/>
<path class="st0" d="M237.6,648.9c-8.9,9.5-23.4,22.2-44,30c-19.2,7.2-27.2,4-52,12c-5.7,1.8-49.6,16-49,32c0.3,7.2,9.3,8.5,15,22
	c2.6,6.2,3.8,13.2,3,24c-4.2,55.2-22,91-22,91c-14,28.2-25.4,80.5-10,186"/>
<path class="st0" d="M676.6,690.9c16.8,8.6,34.6,15,53,19c16.4,3.5,33.2,5.2,50,5c46.4,0.7,91,34.8,124,60
	c102.9,78.6,161.8,242.1,167,257"/>
</svg>
