<svg width="800" height="800" xmlns="http://www.w3.org/2000/svg" xmlns:xlink="http://www.w3.org/1999/xlink">
  <rect x="0" y="0" width="800" height="800" stroke="none" fill="rgb(255,255,255)"/>

  <g transform="translate(400, 400)">
    <g transform="rotate(178.73061371076372)">
        <path fill="none" stroke="rgb(60,60,60)" stroke-width="2" stroke-dasharray="9 6" d="M -130 0 A 130 130 0 0 0 89.44994505589139 94.33295993181817"/>
      </g>
<g transform="rotate(148.9720223805893)">
        <path fill="none" stroke="rgb(80,80,80)" stroke-width="2" stroke-dasharray="16 5" d="M -350 0 A 350 350 0 0 0 348.798810051185 28.972229925868014"/>
      </g>
<g transform="rotate(304.92045742122343)">
        <path fill="none" stroke="rgb(80,80,80)" stroke-width="4" stroke-dasharray="66 6" d="M -260 0 A 260 260 0 0 0 -257.683332094142 34.63091625787775"/>
      </g>
<g transform="rotate(314.4392739326604)">
        <path fill="none" stroke="rgb(30,30,30)" stroke-width="4" stroke-dasharray="59 8" d="M -170 0 A 170 170 0 0 0 -110.05865286563449 129.5650142955334"/>
      </g>
<g transform="rotate(267.58963493803395)">
        <path fill="none" stroke="rgb(80,80,80)" stroke-width="4" stroke-dasharray="22 5" d="M -290 0 A 290 290 0 0 0 36.01228506342881 287.7553045983868"/>
      </g>
<g transform="rotate(4.674358154138751)">
        <path fill="none" stroke="rgb(30,30,30)" stroke-width="2" stroke-dasharray="67 7" d="M -240 0 A 240 240 0 0 0 236.81454826329315 38.9726792875779"/>
      </g>
<g transform="rotate(292.8286038544878)">
        <path fill="none" stroke="rgb(60,60,60)" stroke-width="4" stroke-dasharray="26 6" d="M -310 0 A 310 310 0 0 0 114.59344509924665 288.042257907214"/>
      </g>
<g transform="rotate(268.26930946535794)">
        <path fill="none" stroke="rgb(60,60,60)" stroke-width="2" stroke-dasharray="8 8" d="M -120 0 A 120 120 0 0 0 52.06156740193098 108.11842211045348"/>
      </g>
<g transform="rotate(199.63427912283862)">
        <path fill="none" stroke="rgb(60,60,60)" stroke-width="4" stroke-dasharray="43 5" d="M -290 0 A 290 290 0 0 0 -286.2277612987646 46.62261963786902"/>
      </g>
<g transform="rotate(213.0226318165818)">
        <path fill="none" stroke="rgb(60,60,60)" stroke-width="2" stroke-dasharray="7 9" d="M -250 0 A 250 250 0 0 0 248.80751919785453 24.388898921625113"/>
      </g>
<g transform="rotate(157.15218682680583)">
        <path fill="none" stroke="rgb(60,60,60)" stroke-width="4" stroke-dasharray="14 5" d="M -260 0 A 260 260 0 0 0 -182.0906777258073 185.58821375657504"/>
      </g>
<g transform="rotate(173.15723413271476)">
        <path fill="none" stroke="rgb(80,80,80)" stroke-width="4" stroke-dasharray="89 7" d="M -190 0 A 190 190 0 0 0 -165.9929382124887 92.44644105418504"/>
      </g>
<g transform="rotate(339.4871626053356)">
        <path fill="none" stroke="rgb(60,60,60)" stroke-width="4" stroke-dasharray="63 9" d="M -370 0 A 370 370 0 0 0 324.19672505223036 178.31568485528283"/>
      </g>
<g transform="rotate(63.062496740909786)">
        <path fill="none" stroke="rgb(30,30,30)" stroke-width="2" stroke-dasharray="20 7" d="M -370 0 A 370 370 0 0 0 74.72923974352321 362.3748621625885"/>
      </g>
<g transform="rotate(40.432790413302456)">
        <path fill="none" stroke="rgb(60,60,60)" stroke-width="2" stroke-dasharray="93 6" d="M -130 0 A 130 130 0 0 0 74.66426984521381 106.42014287004645"/>
      </g>
<g transform="rotate(157.12307399599007)">
        <path fill="none" stroke="rgb(60,60,60)" stroke-width="4" stroke-dasharray="61 5" d="M -270 0 A 270 270 0 0 0 267.80982711994466 34.320496761925966"/>
      </g>
<g transform="rotate(181.62013702477367)">
        <path fill="none" stroke="rgb(80,80,80)" stroke-width="4" stroke-dasharray="15 7" d="M -320 0 A 320 320 0 0 0 -274.07616813171694 165.17340603812357"/>
      </g>
<g transform="rotate(134.4608117908654)">
        <path fill="none" stroke="rgb(60,60,60)" stroke-width="4" stroke-dasharray="62 8" d="M -350 0 A 350 350 0 0 0 -22.023208301512327 349.3064246419012"/>
      </g>
<g transform="rotate(15.811747199081791)">
        <path fill="none" stroke="rgb(60,60,60)" stroke-width="4" stroke-dasharray="79 8" d="M -300 0 A 300 300 0 0 0 -247.61862005866377 169.36652266679832"/>
      </g>
<g transform="rotate(147.08785353929545)">
        <path fill="none" stroke="rgb(30,30,30)" stroke-width="4" stroke-dasharray="26 7" d="M -130 0 A 130 130 0 0 0 126.7642954902309 28.823833694799017"/>
      </g>
<g transform="rotate(281.7828489616958)">
        <path fill="none" stroke="rgb(60,60,60)" stroke-width="2" stroke-dasharray="7 8" d="M -340 0 A 340 340 0 0 0 233.48208428643983 247.15605660646838"/>
      </g>
<g transform="rotate(175.08836546767168)">
        <path fill="none" stroke="rgb(80,80,80)" stroke-width="4" stroke-dasharray="63 6" d="M -240 0 A 240 240 0 0 0 -75.99541139395771 227.65038424536675"/>
      </g>
<g transform="rotate(120.26262603352991)">
        <path fill="none" stroke="rgb(80,80,80)" stroke-width="4" stroke-dasharray="10 7" d="M -110 0 A 110 110 0 0 0 107.87370991735612 21.523538479211656"/>
      </g>
<g transform="rotate(107.91916797097797)">
        <path fill="none" stroke="rgb(30,30,30)" stroke-width="2" stroke-dasharray="76 9" d="M -340 0 A 340 340 0 0 0 115.7708328118716 319.6828338682665"/>
      </g>
<g transform="rotate(194.15122525350526)">
        <path fill="none" stroke="rgb(30,30,30)" stroke-width="2" stroke-dasharray="52 5" d="M -190 0 A 190 190 0 0 0 -120.1115170402508 147.21828512209188"/>
      </g>
<g transform="rotate(245.9378543744749)">
        <path fill="none" stroke="rgb(80,80,80)" stroke-width="4" stroke-dasharray="77 8" d="M -220 0 A 220 220 0 0 0 -75.22897092202409 206.7380031199229"/>
      </g>
<g transform="rotate(210.65131425124918)">
        <path fill="none" stroke="rgb(60,60,60)" stroke-width="4" stroke-dasharray="90 7" d="M -300 0 A 300 300 0 0 0 137.62587225349677 266.56916417032215"/>
      </g>
<g transform="rotate(285.89222572355055)">
        <path fill="none" stroke="rgb(80,80,80)" stroke-width="4" stroke-dasharray="33 5" d="M -390 0 A 390 390 0 0 0 -37.059910422472534 388.2351903672287"/>
      </g>
<g transform="rotate(156.42144220555278)">
        <path fill="none" stroke="rgb(60,60,60)" stroke-width="4" stroke-dasharray="44 9" d="M -170 0 A 170 170 0 0 0 -161.56758584680415 52.87641443626423"/>
      </g>
<g transform="rotate(291.19577118551626)">
        <path fill="none" stroke="rgb(60,60,60)" stroke-width="2" stroke-dasharray="62 5" d="M -110 0 A 110 110 0 0 0 -8.476534015557498 109.67291539429003"/>
      </g>
<g transform="rotate(240.8788638813113)">
        <path fill="none" stroke="rgb(80,80,80)" stroke-width="2" stroke-dasharray="46 8" d="M -200 0 A 200 200 0 0 0 -86.18738239179187 180.4764115236422"/>
      </g>
<g transform="rotate(296.2910309969458)">
        <path fill="none" stroke="rgb(60,60,60)" stroke-width="2" stroke-dasharray="1 9" d="M -240 0 A 240 240 0 0 0 -170.7428428485607 168.66203371236725"/>
      </g>
<g transform="rotate(57.683668217615434)">
        <path fill="none" stroke="rgb(80,80,80)" stroke-width="2" stroke-dasharray="27 8" d="M -230 0 A 230 230 0 0 0 -93.69302594123236 210.05146247997314"/>
      </g>
<g transform="rotate(285.47868474983824)">
        <path fill="none" stroke="rgb(30,30,30)" stroke-width="4" stroke-dasharray="82 9" d="M -190 0 A 190 190 0 0 0 -181.69493746047226 55.56032488417504"/>
      </g>
<g transform="rotate(206.66595622007227)">
        <path fill="none" stroke="rgb(60,60,60)" stroke-width="2" stroke-dasharray="83 5" d="M -190 0 A 190 190 0 0 0 184.79784975298475 44.156027070755265"/>
      </g>
<g transform="rotate(296.36769344714344)">
        <path fill="none" stroke="rgb(30,30,30)" stroke-width="4" stroke-dasharray="28 8" d="M -280 0 A 280 280 0 0 0 -182.14613839842897 212.6564935912853"/>
      </g>
<g transform="rotate(162.78189402705766)">
        <path fill="none" stroke="rgb(80,80,80)" stroke-width="2" stroke-dasharray="25 9" d="M -110 0 A 110 110 0 0 0 14.455120585756072 109.04608882876657"/>
      </g>
<g transform="rotate(39.91688974615662)">
        <path fill="none" stroke="rgb(80,80,80)" stroke-width="2" stroke-dasharray="4 5" d="M -390 0 A 390 390 0 0 0 210.97440416374218 328.0088425450661"/>
      </g>
<g transform="rotate(143.22322899112837)">
        <path fill="none" stroke="rgb(30,30,30)" stroke-width="2" stroke-dasharray="58 8" d="M -390 0 A 390 390 0 0 0 -64.795842055423 384.57963915466024"/>
      </g>
<g transform="rotate(0.3802075387963999)">
        <path fill="none" stroke="rgb(60,60,60)" stroke-width="4" stroke-dasharray="91 6" d="M -380 0 A 380 380 0 0 0 -42.34718382284093 377.63304413448054"/>
      </g>
<g transform="rotate(117.5251878836905)">
        <path fill="none" stroke="rgb(80,80,80)" stroke-width="2" stroke-dasharray="90 5" d="M -370 0 A 370 370 0 0 0 -353.69878678179566 108.61476984777829"/>
      </g>
<g transform="rotate(275.7346339634702)">
        <path fill="none" stroke="rgb(80,80,80)" stroke-width="2" stroke-dasharray="42 8" d="M -330 0 A 330 330 0 0 0 -165.48664938310526 285.50686309781275"/>
      </g>
<g transform="rotate(114.53224862545075)">
        <path fill="none" stroke="rgb(60,60,60)" stroke-width="4" stroke-dasharray="61 8" d="M -250 0 A 250 250 0 0 0 249.40633031046465 17.218664322978146"/>
      </g>
<g transform="rotate(217.14193233444732)">
        <path fill="none" stroke="rgb(60,60,60)" stroke-width="2" stroke-dasharray="79 6" d="M -240 0 A 240 240 0 0 0 221.4020570369901 92.63438421984236"/>
      </g>
<g transform="rotate(60.19922415455489)">
        <path fill="none" stroke="rgb(80,80,80)" stroke-width="4" stroke-dasharray="19 8" d="M -250 0 A 250 250 0 0 0 191.33394933436688 160.9077991649688"/>
      </g>
<g transform="rotate(9.856804097736935)">
        <path fill="none" stroke="rgb(30,30,30)" stroke-width="4" stroke-dasharray="64 7" d="M -300 0 A 300 300 0 0 0 -24.659894451279854 298.98476483869837"/>
      </g>
<g transform="rotate(129.97507171991194)">
        <path fill="none" stroke="rgb(30,30,30)" stroke-width="4" stroke-dasharray="14 9" d="M -290 0 A 290 290 0 0 0 48.34846243297043 285.9412984868881"/>
      </g>
<g transform="rotate(243.5284890276732)">
        <path fill="none" stroke="rgb(60,60,60)" stroke-width="2" stroke-dasharray="91 9" d="M -270 0 A 270 270 0 0 0 230.65166996708263 140.3560014441705"/>
      </g>
<g transform="rotate(119.95586404620218)">
        <path fill="none" stroke="rgb(80,80,80)" stroke-width="2" stroke-dasharray="76 7" d="M -260 0 A 260 260 0 0 0 -259.8484097312541 8.877159463380789"/>
      </g>
<g transform="rotate(260.3400198621377)">
        <path fill="none" stroke="rgb(80,80,80)" stroke-width="4" stroke-dasharray="95 5" d="M -350 0 A 350 350 0 0 0 234.6982176704348 259.6473505012543"/>
      </g>
<g transform="rotate(29.595465875125797)">
        <path fill="none" stroke="rgb(80,80,80)" stroke-width="2" stroke-dasharray="21 8" d="M -220 0 A 220 220 0 0 0 184.4901600687293 119.84732303149138"/>
      </g>
<g transform="rotate(209.89808080450095)">
        <path fill="none" stroke="rgb(60,60,60)" stroke-width="4" stroke-dasharray="92 7" d="M -170 0 A 170 170 0 0 0 39.06746903930205 165.4500917584006"/>
      </g>
<g transform="rotate(323.2641598226581)">
        <path fill="none" stroke="rgb(80,80,80)" stroke-width="2" stroke-dasharray="29 7" d="M -300 0 A 300 300 0 0 0 -143.15198782979124 263.6427665997671"/>
      </g>
<g transform="rotate(301.72199612090344)">
        <path fill="none" stroke="rgb(30,30,30)" stroke-width="4" stroke-dasharray="41 6" d="M -200 0 A 200 200 0 0 0 -54.62366125519623 192.3960904776331"/>
      </g>
<g transform="rotate(290.57275112142975)">
        <path fill="none" stroke="rgb(30,30,30)" stroke-width="4" stroke-dasharray="76 6" d="M -270 0 A 270 270 0 0 0 -47.329121427812815 265.81940159602976"/>
      </g>
<g transform="rotate(268.86612749111725)">
        <path fill="none" stroke="rgb(80,80,80)" stroke-width="4" stroke-dasharray="78 7" d="M -320 0 A 320 320 0 0 0 -149.5402932950846 282.90935064295786"/>
      </g>
<g transform="rotate(120.66903474556686)">
        <path fill="none" stroke="rgb(60,60,60)" stroke-width="2" stroke-dasharray="28 5" d="M -100 0 A 100 100 0 0 0 95.65151694179666 29.168258548175064"/>
      </g>
<g transform="rotate(163.8237786503646)">
        <path fill="none" stroke="rgb(30,30,30)" stroke-width="4" stroke-dasharray="51 7" d="M -230 0 A 230 230 0 0 0 -152.78078515590212 171.92449414538373"/>
      </g>
<g transform="rotate(210.32010893076935)">
        <path fill="none" stroke="rgb(60,60,60)" stroke-width="2" stroke-dasharray="66 9" d="M -290 0 A 290 290 0 0 0 -11.5979135738689 289.76799064205323"/>
      </g>
<g transform="rotate(115.54909370992326)">
        <path fill="none" stroke="rgb(60,60,60)" stroke-width="4" stroke-dasharray="77 8" d="M -230 0 A 230 230 0 0 0 202.6738014990729 108.73513777024607"/>
      </g>
<g transform="rotate(156.6372998612545)">
        <path fill="none" stroke="rgb(80,80,80)" stroke-width="4" stroke-dasharray="31 5" d="M -110 0 A 110 110 0 0 0 -82.92262557660693 72.27612446362807"/>
      </g>
<g transform="rotate(132.68787993383054)">
        <path fill="none" stroke="rgb(60,60,60)" stroke-width="2" stroke-dasharray="74 5" d="M -130 0 A 130 130 0 0 0 -129.2773714134996 13.687996216250072"/>
      </g>
<g transform="rotate(296.8643433982804)">
        <path fill="none" stroke="rgb(80,80,80)" stroke-width="4" stroke-dasharray="87 7" d="M -200 0 A 200 200 0 0 0 189.5133993735314 63.91143448467096"/>
      </g>
<g transform="rotate(116.24417006690823)">
        <path fill="none" stroke="rgb(60,60,60)" stroke-width="2" stroke-dasharray="41 6" d="M -380 0 A 380 380 0 0 0 -342.71561234685436 164.15239582083672"/>
      </g>
<g transform="rotate(310.17560687722465)">
        <path fill="none" stroke="rgb(30,30,30)" stroke-width="4" stroke-dasharray="24 9" d="M -150 0 A 150 150 0 0 0 -25.17933205454403 147.87157007784495"/>
      </g>
<g transform="rotate(325.10898997032103)">
        <path fill="none" stroke="rgb(30,30,30)" stroke-width="2" stroke-dasharray="8 5" d="M -240 0 A 240 240 0 0 0 229.78555296666516 69.27192539408675"/>
      </g>
<g transform="rotate(5.130649100349345)">
        <path fill="none" stroke="rgb(60,60,60)" stroke-width="2" stroke-dasharray="51 5" d="M -190 0 A 190 190 0 0 0 -16.540164519902852 189.2786912403363"/>
      </g>
<g transform="rotate(9.71037688917777)">
        <path fill="none" stroke="rgb(30,30,30)" stroke-width="2" stroke-dasharray="0 9" d="M -310 0 A 310 310 0 0 0 -70.58899082439393 301.8562478637698"/>
      </g>
<g transform="rotate(71.84340909480818)">
        <path fill="none" stroke="rgb(30,30,30)" stroke-width="4" stroke-dasharray="96 7" d="M -330 0 A 330 330 0 0 0 273.8045699203582 184.20384765451476"/>
      </g>
<g transform="rotate(290.0257918413775)">
        <path fill="none" stroke="rgb(60,60,60)" stroke-width="2" stroke-dasharray="86 9" d="M -380 0 A 380 380 0 0 0 -378.48059975433904 33.947542025834856"/>
      </g>
<g transform="rotate(277.1795253503792)">
        <path fill="none" stroke="rgb(30,30,30)" stroke-width="4" stroke-dasharray="61 8" d="M -140 0 A 140 140 0 0 0 -137.44028903225833 26.64895777941963"/>
      </g>
<g transform="rotate(54.311893717421434)">
        <path fill="none" stroke="rgb(80,80,80)" stroke-width="2" stroke-dasharray="65 9" d="M -380 0 A 380 380 0 0 0 377.3404014480754 44.88007837565919"/>
      </g>
<g transform="rotate(22.854321427340267)">
        <path fill="none" stroke="rgb(30,30,30)" stroke-width="2" stroke-dasharray="38 8" d="M -150 0 A 150 150 0 0 0 17.6527322844198 148.95764848739591"/>
      </g>
<g transform="rotate(251.00769682523708)">
        <path fill="none" stroke="rgb(30,30,30)" stroke-width="2" stroke-dasharray="70 6" d="M -230 0 A 230 230 0 0 0 -3.7524109040785203 229.9693879898082"/>
      </g>
<g transform="rotate(301.241550292376)">
        <path fill="none" stroke="rgb(80,80,80)" stroke-width="2" stroke-dasharray="50 8" d="M -140 0 A 140 140 0 0 0 130.78487019058875 49.95315534809439"/>
      </g>
<g transform="rotate(281.1131728097227)">
        <path fill="none" stroke="rgb(30,30,30)" stroke-width="4" stroke-dasharray="7 9" d="M -190 0 A 190 190 0 0 0 168.5133954884185 87.76807814327404"/>
      </g>
<g transform="rotate(48.22450524020553)">
        <path fill="none" stroke="rgb(80,80,80)" stroke-width="2" stroke-dasharray="67 7" d="M -120 0 A 120 120 0 0 0 49.875161142955044 109.14425454857562"/>
      </g>
<g transform="rotate(48.11861909669595)">
        <path fill="none" stroke="rgb(60,60,60)" stroke-width="2" stroke-dasharray="74 9" d="M -270 0 A 270 270 0 0 0 -104.86105736721677 248.80546346057048"/>
      </g>
<g transform="rotate(355.29700958154075)">
        <path fill="none" stroke="rgb(80,80,80)" stroke-width="4" stroke-dasharray="21 7" d="M -330 0 A 330 330 0 0 0 153.82019819141155 291.9577822705791"/>
      </g>
<g transform="rotate(342.0837516208357)">
        <path fill="none" stroke="rgb(60,60,60)" stroke-width="4" stroke-dasharray="31 8" d="M -200 0 A 200 200 0 0 0 -33.752137256120534 197.13141107049378"/>
      </g>
<g transform="rotate(77.64514538826842)">
        <path fill="none" stroke="rgb(60,60,60)" stroke-width="2" stroke-dasharray="17 9" d="M -320 0 A 320 320 0 0 0 -315.28453222755456 54.73265696138006"/>
      </g>
<g transform="rotate(119.62282116389486)">
        <path fill="none" stroke="rgb(60,60,60)" stroke-width="4" stroke-dasharray="59 9" d="M -220 0 A 220 220 0 0 0 -216.7006492324787 37.95824840824763"/>
      </g>
<g transform="rotate(29.058949365370516)">
        <path fill="none" stroke="rgb(60,60,60)" stroke-width="4" stroke-dasharray="60 5" d="M -320 0 A 320 320 0 0 0 181.23045080212398 263.73381220855794"/>
      </g>
<g transform="rotate(224.7959173330481)">
        <path fill="none" stroke="rgb(30,30,30)" stroke-width="2" stroke-dasharray="27 5" d="M -110 0 A 110 110 0 0 0 107.48416292332175 23.39133858232202"/>
      </g>
<g transform="rotate(31.151282769240023)">
        <path fill="none" stroke="rgb(30,30,30)" stroke-width="4" stroke-dasharray="38 6" d="M -240 0 A 240 240 0 0 0 233.95055217865416 53.545673357450816"/>
      </g>
<g transform="rotate(240.7738198047702)">
        <path fill="none" stroke="rgb(60,60,60)" stroke-width="2" stroke-dasharray="76 9" d="M -150 0 A 150 150 0 0 0 138.47933139210343 57.649586097351964"/>
      </g>
<g transform="rotate(289.2072086938041)">
        <path fill="none" stroke="rgb(80,80,80)" stroke-width="2" stroke-dasharray="47 5" d="M -130 0 A 130 130 0 0 0 -74.64444190970903 106.43405137449234"/>
      </g>
<g transform="rotate(309.1627715374624)">
        <path fill="none" stroke="rgb(80,80,80)" stroke-width="4" stroke-dasharray="53 5" d="M -230 0 A 230 230 0 0 0 229.77520598567818 10.166352061539364"/>
      </g>
<g transform="rotate(42.445920390744064)">
        <path fill="none" stroke="rgb(80,80,80)" stroke-width="4" stroke-dasharray="58 5" d="M -320 0 A 320 320 0 0 0 319.90600507384755 7.755508860896429"/>
      </g>
<g transform="rotate(0.09823579273430028)">
        <path fill="none" stroke="rgb(60,60,60)" stroke-width="4" stroke-dasharray="48 9" d="M -100 0 A 100 100 0 0 0 99.08139612313029 13.523200149792272"/>
      </g>
<g transform="rotate(185.6317171602086)">
        <path fill="none" stroke="rgb(80,80,80)" stroke-width="4" stroke-dasharray="28 8" d="M -190 0 A 190 190 0 0 0 106.44992201598858 157.3798402044873"/>
      </g>
<g transform="rotate(82.72514372185312)">
        <path fill="none" stroke="rgb(30,30,30)" stroke-width="4" stroke-dasharray="96 9" d="M -240 0 A 240 240 0 0 0 -187.1609704665989 150.23571856919014"/>
      </g>
<g transform="rotate(50.08124261796719)">
        <path fill="none" stroke="rgb(30,30,30)" stroke-width="2" stroke-dasharray="70 9" d="M -220 0 A 220 220 0 0 0 -168.20438112715485 141.80016279832276"/>
      </g>
<g transform="rotate(244.54429761001748)">
        <path fill="none" stroke="rgb(80,80,80)" stroke-width="4" stroke-dasharray="40 7" d="M -170 0 A 170 170 0 0 0 -133.2807859036389 105.52834741863614"/>
      </g>
<g transform="rotate(217.1636286626667)">
        <path fill="none" stroke="rgb(30,30,30)" stroke-width="2" stroke-dasharray="88 8" d="M -100 0 A 100 100 0 0 0 -80.68416590792559 59.076775231408305"/>
      </g>
<g transform="rotate(70.54521292784875)">
        <path fill="none" stroke="rgb(80,80,80)" stroke-width="4" stroke-dasharray="94 7" d="M -190 0 A 190 190 0 0 0 -189.29845229976345 16.312447912995175"/>
      </g>
<g transform="rotate(191.32072386322974)">
        <path fill="none" stroke="rgb(60,60,60)" stroke-width="2" stroke-dasharray="58 8" d="M -300 0 A 300 300 0 0 0 -267.7455789708816 135.32296531464053"/>
      </g>
<g transform="rotate(198.1879417289096)">
        <path fill="none" stroke="rgb(80,80,80)" stroke-width="4" stroke-dasharray="59 7" d="M -330 0 A 330 330 0 0 0 -28.704644827974747 328.7492104405725"/>
      </g>
<g transform="rotate(289.39266542344933)">
        <path fill="none" stroke="rgb(80,80,80)" stroke-width="4" stroke-dasharray="36 5" d="M -310 0 A 310 310 0 0 0 -129.45611073024983 281.67554987005406"/>
      </g>
<g transform="rotate(240.2883672994934)">
        <path fill="none" stroke="rgb(30,30,30)" stroke-width="2" stroke-dasharray="23 6" d="M -150 0 A 150 150 0 0 0 105.88989015876908 106.24185221542318"/>
      </g>
  </g>
</svg>